HIERARCHY
ROOT joint_Root
{
	OFFSET 0.0 0.0 0.0
	CHANNELS 6 Xposition Yposition Zposition Zrotation Xrotation Yrotation 
	JOINT Hips
	{
		OFFSET -0.726466 93.3139 -2.00062
		CHANNELS 6 Xposition Yposition Zposition Zrotation Xrotation Yrotation 
		JOINT Spine
		{
			OFFSET 15.7357 0.0 0.0
			CHANNELS 6 Xposition Yposition Zposition Zrotation Xrotation Yrotation 
			JOINT Chest
			{
				OFFSET 8.98455 -0.406207 0.0
				CHANNELS 6 Xposition Yposition Zposition Zrotation Xrotation Yrotation 
				JOINT Neck
				{
					OFFSET 16.3773 0.0 0.0
					CHANNELS 6 Xposition Yposition Zposition Zrotation Xrotation Yrotation 
					JOINT Head
					{
						OFFSET 6.45672 0.0 0.0
						CHANNELS 6 Xposition Yposition Zposition Zrotation Xrotation Yrotation 
						End Site
						{
							OFFSET 0.0 0.0 0.0
						}
					}
				}
				JOINT Shoulder_L
				{
					OFFSET 12.9942 -0.242716 4.98039
					CHANNELS 6 Xposition Yposition Zposition Zrotation Xrotation Yrotation 
					JOINT UpperArm_L
					{
						OFFSET 5.34809 0.0 0.0
						CHANNELS 6 Xposition Yposition Zposition Zrotation Xrotation Yrotation 
						JOINT LowerArm_L
						{
							OFFSET 24.3286 1.87007e-05 0.0
							CHANNELS 6 Xposition Yposition Zposition Zrotation Xrotation Yrotation 
							JOINT Hand_L
							{
								OFFSET 22.2916 0.0 0.0
								CHANNELS 6 Xposition Yposition Zposition Zrotation Xrotation Yrotation 
								End Site
								{
									OFFSET 0.0 0.0 0.0
								}
							}
						}
					}
				}
				JOINT Shoulder_R
				{
					OFFSET 12.9945 -0.242716 -4.98039
					CHANNELS 6 Xposition Yposition Zposition Zrotation Xrotation Yrotation 
					JOINT UpperArm_R
					{
						OFFSET -5.34813 0.0 0.0
						CHANNELS 6 Xposition Yposition Zposition Zrotation Xrotation Yrotation 
						JOINT LowerArm_R
						{
							OFFSET -24.3289 0.000322201 0.0
							CHANNELS 6 Xposition Yposition Zposition Zrotation Xrotation Yrotation 
							JOINT Hand_R
							{
								OFFSET -22.2915 -0.000108084 0.0
								CHANNELS 6 Xposition Yposition Zposition Zrotation Xrotation Yrotation 
								End Site
								{
									OFFSET 0.0 0.0 0.0
								}
							}
						}
					}
				}
			}
		}
		JOINT UpperLeg_L
		{
			OFFSET -2.19248 -6.46944 0.0
			CHANNELS 6 Xposition Yposition Zposition Zrotation Xrotation Yrotation 
			JOINT LowerLeg_L
			{
				OFFSET 39.0811 0.0 -1.23785e-05
				CHANNELS 6 Xposition Yposition Zposition Zrotation Xrotation Yrotation 
				JOINT Foot_L
				{
					OFFSET 40.9854 0.0 -1.26872e-05
					CHANNELS 6 Xposition Yposition Zposition Zrotation Xrotation Yrotation 
					JOINT Toes_L
					{
						OFFSET 11.7543 0.0 0.0
						CHANNELS 6 Xposition Yposition Zposition Zrotation Xrotation Yrotation 
						End Site
						{
							OFFSET 0.0 0.0 0.0
						}
					}
				}
			}
		}
		JOINT UpperLeg_R
		{
			OFFSET -2.19251 6.46944 0.0
			CHANNELS 6 Xposition Yposition Zposition Zrotation Xrotation Yrotation 
			JOINT LowerLeg_R
			{
				OFFSET -39.0811 -0.00228153 -0.0401928
				CHANNELS 6 Xposition Yposition Zposition Zrotation Xrotation Yrotation 
				JOINT Foot_R
				{
					OFFSET -40.9854 0.0 0.0
					CHANNELS 6 Xposition Yposition Zposition Zrotation Xrotation Yrotation 
					JOINT Toes_R
					{
						OFFSET -11.7543 0.0 0.0
						CHANNELS 6 Xposition Yposition Zposition Zrotation Xrotation Yrotation 
						End Site
						{
							OFFSET 0.0 0.0 0.0
						}
					}
				}
			}
		}
	}
}
MOTION
Frames:	5
Frame Time:	0.0333333
0.000000 0.000000 0.000000 0.000000 0.000000 -0.000000 -1.250550 92.063800 -1.782240 87.444500 -2.316720 4.572990 15.735700 0.000005 -0.000001 89.747700 85.923300 -90.121500 8.984550 -0.406207 -0.000000 0.387397 -0.011832 -0.747016 16.377300 -0.000001 -0.000001 2.864860 -1.478510 2.935250 6.456720 -0.000001 -0.000000 3.523910 -1.414140 -3.351720 12.994200 -0.242716 4.980390 -89.012500 -2.921330 -71.313700 5.348090 -0.000007 -0.000001 23.636500 75.485100 -69.796700 24.328600 0.000019 0.000005 12.260000 0.315154 -88.550100 22.291600 -0.000001 0.000005 42.296900 5.546210 -33.712900 12.994500 -0.242716 -4.980390 90.958300 -2.376680 -68.032000 -5.348130 -0.000001 -0.000004 -55.733100 -50.138200 -96.186000 -24.328900 0.000322 -0.000009 7.677310 4.800390 -58.172500 -22.291500 -0.000108 -0.000004 21.059000 5.407990 -3.198920 -2.192480 -6.469440 -0.000000 -168.253000 -20.034600 -2.018100 39.081100 -0.000007 -0.000012 -0.173474 0.412481 22.810000 40.985400 -0.000006 -0.000013 -6.105500 0.443989 -63.575500 11.754300 -0.000000 0.000003 -0.000087 -0.000917 -16.612800 -2.192510 6.469440 -0.000001 174.642000 23.044800 179.830000 -39.081100 -0.002282 -0.040193 0.012925 -0.025768 20.442500 -40.985400 0.000008 0.000006 -1.114670 3.207060 -63.498300 -11.754300 -0.000006 -0.000006 -0.004096 -0.052434 -18.706000
0.000000 0.000000 0.000000 0.000000 0.000000 -0.000000 -1.224860 92.061000 -1.803710 87.474300 -2.336280 4.601600 15.735700 0.000005 -0.000001 89.909400 85.888600 -90.291000 8.984550 -0.406207 -0.000000 0.456987 0.011328 -0.762784 16.377300 -0.000001 -0.000001 3.117750 -1.512470 2.981190 6.456720 -0.000001 -0.000000 3.685750 -1.510690 -3.369990 12.994200 -0.242716 4.980390 -89.014000 -2.913100 -71.290700 5.348090 -0.000007 -0.000001 23.409700 75.469300 -69.570800 24.328600 0.000019 0.000005 12.238000 0.311330 -88.565000 22.291600 -0.000001 0.000005 42.252300 5.545600 -33.740900 12.994500 -0.242716 -4.980390 90.956200 -2.363440 -67.965700 -5.348130 -0.000001 -0.000004 -55.728000 -50.135100 -96.221000 -24.328900 0.000322 -0.000009 7.650860 4.785130 -58.164400 -22.291500 -0.000108 -0.000004 21.049500 5.409310 -3.242600 -2.192480 -6.469440 -0.000000 -168.288000 -19.988400 -2.002960 39.081100 -0.000007 -0.000012 -0.175054 0.416106 22.816500 40.985400 -0.000006 -0.000013 -6.108990 0.387047 -63.577500 11.754300 -0.000000 0.000003 -0.000086 -0.000903 -16.612300 -2.192510 6.469440 -0.000001 174.560000 23.066000 179.846000 -39.081100 -0.002282 -0.040193 0.007460 -0.011107 20.441800 -40.985400 0.000008 0.000006 -1.284990 3.286010 -63.457500 -11.754300 -0.000006 -0.000006 -0.004090 -0.052369 -18.703400
0.000000 0.000000 0.000000 0.000000 0.000000 -0.000000 -1.201440 92.062900 -1.837440 87.457900 -2.372360 4.630760 15.735700 0.000005 -0.000001 89.877700 85.845800 -90.252700 8.984550 -0.406207 -0.000000 0.542406 0.005909 -0.749478 16.377300 -0.000001 -0.000001 3.357340 -1.567690 3.007980 6.456720 -0.000001 -0.000000 3.829670 -1.583630 -3.372360 12.994200 -0.242716 4.980390 -89.017400 -2.895340 -71.244900 5.348090 -0.000007 -0.000001 23.075900 75.473100 -69.247900 24.328600 0.000019 0.000005 12.250000 0.314276 -88.552900 22.291600 -0.000001 0.000005 42.330400 5.544440 -33.794700 12.994500 -0.242716 -4.980390 90.970000 -2.393000 -67.926200 -5.348130 -0.000001 -0.000004 -55.801500 -50.129100 -96.250700 -24.328900 0.000322 -0.000009 7.676450 4.786060 -58.246100 -22.291500 -0.000108 -0.000004 20.975700 5.412650 -3.353070 -2.192480 -6.469440 -0.000000 -168.290000 -20.049800 -2.018930 39.081100 -0.000007 -0.000012 -0.173645 0.411750 22.866600 40.985400 -0.000006 -0.000013 -6.076370 0.372106 -63.581200 11.754300 -0.000000 0.000003 -0.000085 -0.000900 -16.612200 -2.192510 6.469440 -0.000001 174.563000 23.063900 179.847000 -39.081100 -0.002282 -0.040193 0.008745 -0.014550 20.444100 -40.985400 0.000008 0.000006 -1.208810 3.301480 -63.434700 -11.754300 -0.000006 -0.000006 -0.003957 -0.050990 -18.647200
0.000000 0.000000 0.000000 0.000000 0.000000 -0.000000 -1.176970 92.070400 -1.883570 87.469900 -2.370830 4.604550 15.735700 0.000005 -0.000001 89.807600 85.829600 -90.187900 8.984550 -0.406207 -0.000000 0.574845 -0.004132 -0.759972 16.377300 -0.000001 -0.000001 3.578110 -1.602860 3.040110 6.456720 -0.000001 -0.000000 4.022900 -1.651350 -3.354080 12.994200 -0.242716 4.980390 -89.011200 -2.906630 -71.203200 5.348090 -0.000007 -0.000001 22.686100 75.455500 -68.893600 24.328600 0.000019 0.000005 12.129800 0.321485 -88.504600 22.291600 -0.000001 0.000005 42.242400 5.538170 -34.081400 12.994500 -0.242716 -4.980390 90.972300 -2.392620 -67.876900 -5.348130 -0.000001 -0.000004 -55.632400 -50.158600 -96.079100 -24.328900 0.000322 -0.000009 7.711670 4.781130 -58.391100 -22.291500 -0.000108 -0.000004 20.975900 5.415270 -3.440400 -2.192480 -6.469440 -0.000000 -168.334000 -20.063900 -2.064480 39.081100 -0.000007 -0.000012 -0.173653 0.412330 22.838600 40.985400 -0.000006 -0.000013 -6.048500 0.390441 -63.543700 11.754300 -0.000000 0.000003 -0.000083 -0.000875 -16.611200 -2.192510 6.469440 -0.000001 174.551000 23.093300 179.803000 -39.081100 -0.002282 -0.040193 0.009196 -0.015796 20.402700 -40.985400 0.000008 0.000006 -1.244890 3.356790 -63.372000 -11.754300 -0.000006 -0.000006 -0.004240 -0.053910 -18.766100
0.000000 0.000000 0.000000 0.000000 0.000000 -0.000000 -1.140220 92.067200 -1.919600 87.477300 -2.398380 4.643710 15.735700 0.000005 -0.000001 89.870200 85.783300 -90.244900 8.984550 -0.406207 -0.000000 0.667561 0.004113 -0.748882 16.377300 -0.000001 -0.000001 3.763200 -1.617370 3.082970 6.456720 -0.000001 -0.000000 4.181500 -1.704380 -3.459150 12.994200 -0.242716 4.980390 -89.025600 -2.862700 -71.192700 5.348090 -0.000007 -0.000001 22.177600 75.457200 -68.361600 24.328600 0.000019 0.000005 12.136600 0.318541 -88.519100 22.291600 -0.000001 0.000005 42.142800 5.537180 -34.126200 12.994500 -0.242716 -4.980390 90.979300 -2.401090 -67.803800 -5.348130 -0.000001 -0.000004 -55.471900 -50.169800 -95.928600 -24.328900 0.000322 -0.000009 7.620710 4.694290 -58.551500 -22.291500 -0.000108 -0.000004 20.976400 5.414350 -3.409700 -2.192480 -6.469440 -0.000000 -168.371000 -20.048200 -2.084390 39.081100 -0.000007 -0.000012 -0.172356 0.407910 22.906000 40.985400 -0.000006 -0.000013 -6.018500 0.351059 -63.565300 11.754300 -0.000000 0.000003 -0.000089 -0.000931 -16.613400 -2.192510 6.469440 -0.000001 174.512000 23.019200 179.806000 -39.081100 -0.002282 -0.040193 0.005951 -0.007067 20.415000 -40.985400 0.000008 0.000006 -1.336000 3.326130 -63.336300 -11.754300 -0.000006 -0.000006 -0.004138 -0.052867 -18.723700
